<svg width="100" height="100" viewBox="0 0 100 100" fill="none" xmlns="http://www.w3.org/2000/svg">
<g clip-path="url(#clip0_124_9)">
<g clip-path="url(#clip1_124_9)">
<path fill-rule="evenodd" clip-rule="evenodd" d="M22.9903 78.6913C17.9817 74.2779 11.8601 70.4162 7.96447 65.4511C-4.83536 48.9008 -2.05279 29.5921 15.1992 15.2486C33.5641 -0.198366 68.6245 0.35331 86.4329 16.3519C107.024 34.5572 103.685 62.6927 79.7548 76.4846C69.181 82.5531 57.4942 84.7598 45.2509 84.2081C42.4683 84.2081 39.1293 85.3114 36.9032 86.4148C30.7815 89.7249 25.7729 94.1383 19.6513 98C19.0947 97.4483 18.5382 97.4483 17.9817 96.8966C20.2078 90.8282 21.8773 84.7598 22.9903 78.6913Z" fill="#363636"/>
</g>
</g>
<defs>
<clipPath id="clip0_124_9">
<rect width="100" height="100" fill="white"/>
</clipPath>
<clipPath id="clip1_124_9">
<rect width="100" height="100" fill="white"/>
</clipPath>
</defs>
</svg>
