<svg width="65" height="65" viewBox="0 0 65 65" fill="none" xmlns="http://www.w3.org/2000/svg">
<g filter="url(#filter0_i_479_250)">
<rect width="65" height="65" rx="9" fill="white"/>
</g>
<path d="M49.0397 13.3505L33.8631 13.3505C33.1996 13.3505 32.5361 13.5993 32.0385 14.0969C31.5409 14.5945 31.2922 15.2579 31.2922 15.9214L31.2922 22.3072L24.9064 22.3072C24.2429 22.3072 23.5794 22.556 23.0818 23.0536C22.5842 23.5512 22.3354 24.2147 22.3354 24.8781L22.3354 31.2639L15.9496 31.2639C15.2862 31.2639 14.6227 31.5127 14.1251 32.0103C13.6275 32.5079 13.3787 33.1714 13.3787 33.8348L13.3787 49.0115C13.3787 50.4213 14.5398 51.5824 15.9496 51.5824L31.1263 51.5824C31.7897 51.5824 32.4532 51.3336 32.9508 50.836C33.4484 50.3384 33.6972 49.6749 33.6972 49.0115L33.6972 42.6257L40.083 42.6257C40.7465 42.6257 41.4099 42.3769 41.9075 41.8793C42.4051 41.3817 42.6539 40.7182 42.6539 40.0548L42.6539 33.669L49.0397 33.669C49.7032 33.669 50.3666 33.4202 50.8642 32.9226C51.3618 32.425 51.6106 31.7615 51.6106 31.0981L51.6106 15.9214C51.6106 15.2579 51.3618 14.5945 50.8642 14.0969C50.3666 13.5993 49.7032 13.3505 49.0397 13.3505ZM41.4514 32.4664L33.9045 32.4664C33.5728 32.4664 33.1996 32.342 32.9093 32.0518C32.6191 31.7615 32.4947 31.4712 32.4947 31.0566L32.4947 23.5097L40.0415 23.5097C40.7879 23.5097 41.4099 24.1317 41.4099 24.8781L41.4514 32.4664ZM31.0848 32.4664C31.4166 32.4664 31.7897 32.5908 32.08 32.8811C32.3703 33.1714 32.4947 33.4616 32.4947 33.8763L32.4947 41.4231L24.9064 41.4646C24.16 41.4646 23.538 40.8426 23.538 40.0962L23.538 32.5494L31.0848 32.4664Z" fill="url(#paint0_linear_479_250)"/>
<defs>
<filter id="filter0_i_479_250" x="0" y="0" width="65" height="65" filterUnits="userSpaceOnUse" color-interpolation-filters="sRGB">
<feFlood flood-opacity="0" result="BackgroundImageFix"/>
<feBlend mode="normal" in="SourceGraphic" in2="BackgroundImageFix" result="shape"/>
<feColorMatrix in="SourceAlpha" type="matrix" values="0 0 0 0 0 0 0 0 0 0 0 0 0 0 0 0 0 0 127 0" result="hardAlpha"/>
<feOffset/>
<feGaussianBlur stdDeviation="1"/>
<feComposite in2="hardAlpha" operator="arithmetic" k2="-1" k3="1"/>
<feColorMatrix type="matrix" values="0 0 0 0 0 0 0 0 0 0 0 0 0 0 0 0 0 0 0.35 0"/>
<feBlend mode="normal" in2="shape" result="effect1_innerShadow_479_250"/>
</filter>
<linearGradient id="paint0_linear_479_250" x1="32.4999" y1="60.2385" x2="32.4999" y2="4.68405" gradientUnits="userSpaceOnUse">
<stop offset="0.05" stop-color="#78ABFD"/>
<stop offset="0.95" stop-color="#045FF1"/>
</linearGradient>
</defs>
</svg>
