<svg width="355" height="57" viewBox="0 0 355 57" fill="none" xmlns="http://www.w3.org/2000/svg">
<path d="M45.0397 9.3505L29.8631 9.3505C29.1996 9.3505 28.5361 9.5993 28.0385 10.0969C27.5409 10.5945 27.2922 11.2579 27.2922 11.9214L27.2922 18.3072L20.9064 18.3072C20.2429 18.3072 19.5794 18.556 19.0818 19.0536C18.5842 19.5512 18.3354 20.2147 18.3354 20.8781L18.3354 27.2639L11.9496 27.2639C11.2862 27.2639 10.6227 27.5127 10.1251 28.0103C9.62753 28.5079 9.37873 29.1714 9.37873 29.8348L9.37874 45.0115C9.37874 46.4213 10.5398 47.5824 11.9496 47.5824L27.1263 47.5824C27.7897 47.5824 28.4532 47.3336 28.9508 46.836C29.4484 46.3384 29.6972 45.6749 29.6972 45.0115L29.6972 38.6257L36.083 38.6257C36.7465 38.6257 37.4099 38.3769 37.9075 37.8793C38.4051 37.3817 38.6539 36.7182 38.6539 36.0548L38.6539 29.669L45.0397 29.669C45.7032 29.669 46.3666 29.4202 46.8642 28.9226C47.3618 28.425 47.6106 27.7615 47.6106 27.0981L47.6106 11.9214C47.6106 11.2579 47.3618 10.5945 46.8642 10.0969C46.3666 9.5993 45.7032 9.3505 45.0397 9.3505ZM37.4514 28.4664L29.9045 28.4664C29.5728 28.4664 29.1996 28.342 28.9093 28.0518C28.6191 27.7615 28.4947 27.4712 28.4947 27.0566L28.4947 19.5097L36.0415 19.5097C36.7879 19.5097 37.4099 20.1317 37.4099 20.8781L37.4514 28.4664ZM27.0848 28.4664C27.4166 28.4664 27.7897 28.5908 28.08 28.8811C28.3703 29.1714 28.4947 29.4616 28.4947 29.8763L28.4947 37.4231L20.9064 37.4646C20.16 37.4646 19.538 36.8426 19.538 36.0962L19.538 28.5494L27.0848 28.4664Z" fill="url(#paint0_linear_479_283)"/>
<path d="M318.189 12.4523C317.083 10.4528 318.529 8 320.814 8H324.456C325.581 8 326.612 8.62942 327.125 9.63034L334.84 24.6644C334.887 24.755 334.98 24.812 335.082 24.812V24.812C335.184 24.812 335.277 24.755 335.324 24.6644L343.038 9.63034C343.552 8.62942 344.583 8 345.708 8H349.304C351.587 8 353.033 10.4487 351.931 12.4481L340.155 33.8138C339.911 34.2573 339.783 34.7555 339.783 35.2619V45.0391C339.783 46.6959 338.44 48.0391 336.783 48.0391H333.381C331.724 48.0391 330.381 46.6959 330.381 45.0391V35.2645C330.381 34.7564 330.252 34.2567 330.006 33.8122L318.189 12.4523Z" fill="#111111"/>
<path d="M283.543 48.0391C281.886 48.0391 280.543 46.6959 280.543 45.0391V11C280.543 9.34315 281.886 8 283.543 8H296.912C305.927 8 311.457 13.0878 311.457 21.2726C311.457 25.5023 309.97 28.8171 307.285 31.0286C305.939 32.1375 305.255 34.0251 306.09 35.5565L310.477 43.6032C311.566 45.6023 310.119 48.0391 307.843 48.0391H304.352C303.245 48.0391 302.227 47.4292 301.706 46.4525L296.045 35.8553C295.524 34.8786 294.506 34.2687 293.399 34.2687H292.944C291.287 34.2687 289.944 35.6119 289.944 37.2687V45.0391C289.944 46.6959 288.601 48.0391 286.944 48.0391H283.543ZM289.944 23.7476C289.944 25.4044 291.287 26.7476 292.944 26.7476H294.921C299.346 26.7476 301.724 25.0332 301.724 21.2726C301.724 17.512 299.346 15.6318 294.921 15.6318H292.944C291.287 15.6318 289.944 16.9749 289.944 18.6318V23.7476Z" fill="#111111"/>
<path d="M232.062 8C233.719 8 235.062 9.34315 235.062 11V45.0391C235.062 46.6959 233.719 48.0391 232.062 48.0391H228.616C227.631 48.0391 226.709 47.5557 226.148 46.7458L210.838 24.6137C210.804 24.5647 210.749 24.5355 210.689 24.5355V24.5355C210.589 24.5355 210.508 24.6167 210.508 24.7169V45.0391C210.508 46.6959 209.164 48.0391 207.508 48.0391H204.106C202.449 48.0391 201.106 46.6959 201.106 45.0391V11C201.106 9.34315 202.449 8 204.106 8H207.654C208.644 8 209.57 8.48833 210.129 9.30511L225.264 31.4091C225.305 31.4682 225.372 31.5036 225.443 31.5036V31.5036C225.563 31.5036 225.661 31.4063 225.661 31.2863V11C225.661 9.34314 227.004 8 228.661 8H232.062Z" fill="#111111"/>
<path d="M189.191 8C190.848 8 192.191 9.34315 192.191 11V45.0391C192.191 46.6959 190.848 48.0391 189.191 48.0391H185.79C184.133 48.0391 182.79 46.6959 182.79 45.0391V11C182.79 9.34315 184.133 8 185.79 8H189.191Z" fill="#111111"/>
<path d="M144.578 15.6871C142.922 15.6871 141.578 14.3439 141.578 12.6871V11C141.578 9.34315 142.922 8 144.578 8H172.258C173.914 8 175.258 9.34315 175.258 11V12.6871C175.258 14.3439 173.914 15.6871 172.258 15.6871H166.091C164.434 15.6871 163.091 17.0302 163.091 18.6871V45.0391C163.091 46.6959 161.748 48.0391 160.091 48.0391H156.745C155.088 48.0391 153.745 46.6959 153.745 45.0391V18.6871C153.745 17.0302 152.402 15.6871 150.745 15.6871H144.578Z" fill="#111111"/>
<path d="M106.906 48.0391C105.249 48.0391 103.906 46.6959 103.906 45.0391V11C103.906 9.34315 105.249 8 106.906 8H120.276C129.29 8 134.82 13.0878 134.82 21.2726C134.82 25.5023 133.334 28.8171 130.649 31.0286C129.303 32.1375 128.619 34.0251 129.454 35.5565L133.84 43.6032C134.93 45.6023 133.483 48.0391 131.206 48.0391H127.715C126.608 48.0391 125.591 47.4292 125.069 46.4525L119.409 35.8553C118.887 34.8786 117.87 34.2687 116.763 34.2687H116.308C114.651 34.2687 113.308 35.6119 113.308 37.2687V45.0391C113.308 46.6959 111.965 48.0391 110.308 48.0391H106.906ZM113.308 23.7476C113.308 25.4044 114.651 26.7476 116.308 26.7476H118.285C122.709 26.7476 125.087 25.0332 125.087 21.2726C125.087 17.512 122.709 15.6318 118.285 15.6318H116.308C114.651 15.6318 113.308 16.9749 113.308 18.6318V23.7476Z" fill="#111111"/>
<path d="M68.7097 48.0391H65.1749C63.1236 48.0391 61.6774 46.0263 62.3316 44.0822L73.7652 10.1082C74.1761 8.88735 75.3204 8.06506 76.6085 8.06506H80.1432C82.1945 8.06506 83.6408 10.0778 82.9865 12.0219L71.553 45.9959C71.1421 47.2168 69.9978 48.0391 68.7097 48.0391Z" fill="#111111"/>
<path d="M89.9332 47.974H93.4679C95.5192 47.974 96.9655 45.9613 96.3112 44.0171L84.8776 10.0431C84.4668 8.82229 83.3224 8 82.0343 8H78.4996C76.4483 8 75.002 10.0127 75.6563 11.9569L87.0899 45.9309C87.5007 47.1517 88.645 47.974 89.9332 47.974Z" fill="#111111"/>
<rect x="244.214" y="39.6461" width="28.3149" height="8.32792" rx="3" fill="#111111"/>
<rect x="244.214" y="22.9902" width="28.3149" height="8.32792" rx="3" fill="#111111"/>
<rect x="244.214" y="8" width="28.3149" height="8.32792" rx="3" fill="#111111"/>
<defs>
<linearGradient id="paint0_linear_479_283" x1="28.4999" y1="56.2385" x2="28.4999" y2="0.684052" gradientUnits="userSpaceOnUse">
<stop offset="0.05" stop-color="#78ABFD"/>
<stop offset="0.95" stop-color="#045FF1"/>
</linearGradient>
</defs>
</svg>
