<svg width="294" height="107" viewBox="0 0 294 107" fill="none" xmlns="http://www.w3.org/2000/svg">
<path d="M163.317 8.66648L148.14 8.66648C147.477 8.66648 146.813 8.91528 146.316 9.41287C145.818 9.91047 145.569 10.5739 145.569 11.2374L145.569 17.6232L139.184 17.6232C138.52 17.6232 137.857 17.872 137.359 18.3696C136.862 18.8672 136.613 19.5306 136.613 20.1941L136.613 26.5799L130.227 26.5799C129.564 26.5799 128.9 26.8287 128.402 27.3263C127.905 27.8239 127.656 28.4873 127.656 29.1508L127.656 44.3275C127.656 45.7373 128.817 46.8984 130.227 46.8984L145.404 46.8984C146.067 46.8984 146.731 46.6496 147.228 46.152C147.726 45.6544 147.975 44.9909 147.975 44.3275L147.975 37.9416L154.36 37.9416C155.024 37.9416 155.687 37.6929 156.185 37.1953C156.682 36.6977 156.931 36.0342 156.931 35.3707L156.931 28.9849L163.317 28.9849C163.981 28.9849 164.644 28.7361 165.142 28.2385C165.639 27.741 165.888 27.0775 165.888 26.414L165.888 11.2374C165.888 10.5739 165.639 9.91047 165.142 9.41287C164.644 8.91528 163.981 8.66648 163.317 8.66648ZM155.729 27.7824L148.182 27.7824C147.85 27.7824 147.477 27.658 147.187 27.3678C146.896 27.0775 146.772 26.7872 146.772 26.3726L146.772 18.8257L154.319 18.8257C155.065 18.8257 155.687 19.4477 155.687 20.1941L155.729 27.7824ZM145.362 27.7824C145.694 27.7824 146.067 27.9068 146.357 28.1971C146.648 28.4873 146.772 28.7776 146.772 29.1923L146.772 36.7391L139.184 36.7806C138.437 36.7806 137.815 36.1586 137.815 35.4122L137.815 27.8654L145.362 27.7824Z" fill="url(#paint0_linear_479_327)"/>
<path d="M257.189 70.7685C256.083 68.769 257.529 66.3162 259.814 66.3162H263.456C264.581 66.3162 265.612 66.9456 266.125 67.9466L273.84 82.9806C273.887 83.0712 273.98 83.1282 274.082 83.1282V83.1282C274.184 83.1282 274.277 83.0712 274.324 82.9806L282.038 67.9466C282.552 66.9456 283.583 66.3162 284.708 66.3162H288.304C290.587 66.3162 292.033 68.7649 290.931 70.7643L279.155 92.1301C278.911 92.5736 278.783 93.0717 278.783 93.5781V103.355C278.783 105.012 277.44 106.355 275.783 106.355H272.381C270.724 106.355 269.381 105.012 269.381 103.355V93.5807C269.381 93.0727 269.252 92.573 269.006 92.1284L257.189 70.7685Z" fill="#111111"/>
<path d="M222.543 106.355C220.886 106.355 219.543 105.012 219.543 103.355V69.3162C219.543 67.6594 220.886 66.3162 222.543 66.3162H235.912C244.927 66.3162 250.457 71.4041 250.457 79.5888C250.457 83.8186 248.97 87.1333 246.285 89.3448C244.939 90.4537 244.255 92.3414 245.09 93.8727L249.477 101.919C250.566 103.919 249.119 106.355 246.843 106.355H243.352C242.245 106.355 241.227 105.745 240.706 104.769L235.045 94.1715C234.524 93.1949 233.506 92.5849 232.399 92.5849H231.944C230.287 92.5849 228.944 93.9281 228.944 95.5849V103.355C228.944 105.012 227.601 106.355 225.944 106.355H222.543ZM228.944 82.0638C228.944 83.7206 230.287 85.0638 231.944 85.0638H233.921C238.346 85.0638 240.724 83.3494 240.724 79.5888C240.724 75.8283 238.346 73.948 233.921 73.948H231.944C230.287 73.948 228.944 75.2911 228.944 76.948V82.0638Z" fill="#111111"/>
<path d="M171.062 66.3162C172.719 66.3162 174.062 67.6594 174.062 69.3162V103.355C174.062 105.012 172.719 106.355 171.062 106.355H167.616C166.631 106.355 165.709 105.872 165.148 105.062L149.838 82.9299C149.804 82.8809 149.749 82.8517 149.689 82.8517V82.8517C149.589 82.8517 149.508 82.9329 149.508 83.0331V103.355C149.508 105.012 148.164 106.355 146.508 106.355H143.106C141.449 106.355 140.106 105.012 140.106 103.355V69.3162C140.106 67.6594 141.449 66.3162 143.106 66.3162H146.654C147.644 66.3162 148.57 66.8045 149.129 67.6213L164.264 89.7253C164.305 89.7845 164.372 89.8198 164.443 89.8198V89.8198C164.563 89.8198 164.661 89.7225 164.661 89.6026V69.3162C164.661 67.6594 166.004 66.3162 167.661 66.3162H171.062Z" fill="#111111"/>
<path d="M128.191 66.3162C129.848 66.3162 131.191 67.6594 131.191 69.3162V103.355C131.191 105.012 129.848 106.355 128.191 106.355H124.79C123.133 106.355 121.79 105.012 121.79 103.355V69.3162C121.79 67.6594 123.133 66.3162 124.79 66.3162H128.191Z" fill="#111111"/>
<path d="M83.5784 74.0033C81.9215 74.0033 80.5784 72.6601 80.5784 71.0033V69.3162C80.5784 67.6594 81.9215 66.3162 83.5784 66.3162H111.258C112.914 66.3162 114.258 67.6594 114.258 69.3162V71.0033C114.258 72.6601 112.914 74.0033 111.258 74.0033H105.091C103.434 74.0033 102.091 75.3464 102.091 77.0033V103.355C102.091 105.012 100.748 106.355 99.0911 106.355H95.7449C94.0881 106.355 92.7449 105.012 92.7449 103.355V77.0033C92.7449 75.3464 91.4018 74.0033 89.7449 74.0033H83.5784Z" fill="#111111"/>
<path d="M45.9063 106.355C44.2494 106.355 42.9062 105.012 42.9062 103.355V69.3162C42.9062 67.6594 44.2494 66.3162 45.9062 66.3162H59.2758C68.2901 66.3162 73.8204 71.4041 73.8204 79.5888C73.8204 83.8186 72.3336 87.1333 69.6489 89.3448C68.3028 90.4537 67.6189 92.3414 68.4537 93.8727L72.8401 101.919C73.9299 103.919 72.4829 106.355 70.2061 106.355H66.7154C65.6081 106.355 64.5909 105.745 64.0692 104.769L58.4089 94.1715C57.8872 93.1949 56.87 92.5849 55.7627 92.5849H55.3077C53.6508 92.5849 52.3077 93.9281 52.3077 95.5849V103.355C52.3077 105.012 50.9645 106.355 49.3077 106.355H45.9063ZM52.3077 82.0638C52.3077 83.7206 53.6508 85.0638 55.3077 85.0638H57.2849C61.7091 85.0638 64.0871 83.3494 64.0871 79.5888C64.0871 75.8283 61.7091 73.948 57.2849 73.948H55.3077C53.6508 73.948 52.3077 75.2911 52.3077 76.948V82.0638Z" fill="#111111"/>
<path d="M7.70966 106.355H4.17495C2.12364 106.355 0.677355 104.343 1.33164 102.398L12.7652 68.4244C13.1761 67.2036 14.3204 66.3813 15.6085 66.3813H19.1432C21.1945 66.3813 22.6408 68.394 21.9865 70.3382L10.553 104.312C10.1421 105.533 8.99777 106.355 7.70966 106.355Z" fill="#111111"/>
<path d="M28.9332 106.29H32.4679C34.5192 106.29 35.9655 104.278 35.3112 102.333L23.8776 68.3593C23.4668 67.1385 22.3224 66.3162 21.0343 66.3162H17.4996C15.4483 66.3162 14.002 68.3289 14.6563 70.2731L26.0899 104.247C26.5007 105.468 27.645 106.29 28.9332 106.29Z" fill="#111111"/>
<rect x="183.214" y="97.9623" width="28.3149" height="8.32792" rx="3" fill="#111111"/>
<rect x="183.214" y="81.3065" width="28.3149" height="8.32792" rx="3" fill="#111111"/>
<rect x="183.214" y="66.3162" width="28.3149" height="8.32792" rx="3" fill="#111111"/>
<defs>
<linearGradient id="paint0_linear_479_327" x1="146.777" y1="55.5544" x2="146.777" y2="3.09486e-05" gradientUnits="userSpaceOnUse">
<stop offset="0.05" stop-color="#78ABFD"/>
<stop offset="0.95" stop-color="#045FF1"/>
</linearGradient>
</defs>
</svg>
