<svg width="371" height="65" viewBox="0 0 371 65" fill="none" xmlns="http://www.w3.org/2000/svg">
<g filter="url(#filter0_i_479_282)">
<rect width="65" height="65" rx="9" fill="white"/>
</g>
<path d="M49.0397 13.3505L33.8631 13.3505C33.1996 13.3505 32.5361 13.5993 32.0385 14.0969C31.5409 14.5945 31.2922 15.2579 31.2922 15.9214L31.2922 22.3072L24.9064 22.3072C24.2429 22.3072 23.5794 22.556 23.0818 23.0536C22.5842 23.5512 22.3354 24.2147 22.3354 24.8781L22.3354 31.2639L15.9496 31.2639C15.2862 31.2639 14.6227 31.5127 14.1251 32.0103C13.6275 32.5079 13.3787 33.1714 13.3787 33.8348L13.3787 49.0115C13.3787 50.4213 14.5398 51.5824 15.9496 51.5824L31.1263 51.5824C31.7897 51.5824 32.4532 51.3336 32.9508 50.836C33.4484 50.3384 33.6972 49.6749 33.6972 49.0115L33.6972 42.6257L40.083 42.6257C40.7465 42.6257 41.4099 42.3769 41.9075 41.8793C42.4051 41.3817 42.6539 40.7182 42.6539 40.0548L42.6539 33.669L49.0397 33.669C49.7032 33.669 50.3666 33.4202 50.8642 32.9226C51.3618 32.425 51.6106 31.7615 51.6106 31.0981L51.6106 15.9214C51.6106 15.2579 51.3618 14.5945 50.8642 14.0969C50.3666 13.5993 49.7032 13.3505 49.0397 13.3505ZM41.4514 32.4664L33.9045 32.4664C33.5728 32.4664 33.1996 32.342 32.9093 32.0518C32.6191 31.7615 32.4947 31.4712 32.4947 31.0566L32.4947 23.5097L40.0415 23.5097C40.7879 23.5097 41.4099 24.1317 41.4099 24.8781L41.4514 32.4664ZM31.0848 32.4664C31.4166 32.4664 31.7897 32.5908 32.08 32.8811C32.3703 33.1714 32.4947 33.4616 32.4947 33.8763L32.4947 41.4231L24.9064 41.4646C24.16 41.4646 23.538 40.8426 23.538 40.0962L23.538 32.5494L31.0848 32.4664Z" fill="url(#paint0_linear_479_282)"/>
<path d="M334.189 16.4523C333.083 14.4528 334.529 12 336.814 12H340.456C341.581 12 342.612 12.6294 343.125 13.6303L350.84 28.6644C350.887 28.755 350.98 28.812 351.082 28.812V28.812C351.184 28.812 351.277 28.755 351.324 28.6644L359.038 13.6303C359.552 12.6294 360.583 12 361.708 12H365.304C367.587 12 369.033 14.4487 367.931 16.4481L356.155 37.8138C355.911 38.2573 355.783 38.7555 355.783 39.2619V49.0391C355.783 50.6959 354.44 52.0391 352.783 52.0391H349.381C347.724 52.0391 346.381 50.6959 346.381 49.0391V39.2645C346.381 38.7564 346.252 38.2567 346.006 37.8122L334.189 16.4523Z" fill="#111111"/>
<path d="M299.543 52.0391C297.886 52.0391 296.543 50.6959 296.543 49.0391V15C296.543 13.3431 297.886 12 299.543 12H312.912C321.927 12 327.457 17.0878 327.457 25.2726C327.457 29.5023 325.97 32.8171 323.285 35.0286C321.939 36.1375 321.255 38.0251 322.09 39.5565L326.477 47.6032C327.566 49.6023 326.119 52.0391 323.843 52.0391H320.352C319.245 52.0391 318.227 51.4292 317.706 50.4525L312.045 39.8553C311.524 38.8786 310.506 38.2687 309.399 38.2687H308.944C307.287 38.2687 305.944 39.6119 305.944 41.2687V49.0391C305.944 50.6959 304.601 52.0391 302.944 52.0391H299.543ZM305.944 27.7476C305.944 29.4044 307.287 30.7476 308.944 30.7476H310.921C315.346 30.7476 317.724 29.0332 317.724 25.2726C317.724 21.512 315.346 19.6318 310.921 19.6318H308.944C307.287 19.6318 305.944 20.9749 305.944 22.6318V27.7476Z" fill="#111111"/>
<path d="M248.062 12C249.719 12 251.062 13.3431 251.062 15V49.0391C251.062 50.6959 249.719 52.0391 248.062 52.0391H244.616C243.631 52.0391 242.709 51.5557 242.148 50.7458L226.838 28.6137C226.804 28.5647 226.749 28.5355 226.689 28.5355V28.5355C226.589 28.5355 226.508 28.6167 226.508 28.7169V49.0391C226.508 50.6959 225.164 52.0391 223.508 52.0391H220.106C218.449 52.0391 217.106 50.6959 217.106 49.0391V15C217.106 13.3431 218.449 12 220.106 12H223.654C224.644 12 225.57 12.4883 226.129 13.3051L241.264 35.4091C241.305 35.4682 241.372 35.5036 241.443 35.5036V35.5036C241.563 35.5036 241.661 35.4063 241.661 35.2863V15C241.661 13.3431 243.004 12 244.661 12H248.062Z" fill="#111111"/>
<path d="M205.191 12C206.848 12 208.191 13.3431 208.191 15V49.0391C208.191 50.6959 206.848 52.0391 205.191 52.0391H201.79C200.133 52.0391 198.79 50.6959 198.79 49.0391V15C198.79 13.3431 200.133 12 201.79 12H205.191Z" fill="#111111"/>
<path d="M160.578 19.6871C158.922 19.6871 157.578 18.3439 157.578 16.6871V15C157.578 13.3431 158.922 12 160.578 12H188.258C189.914 12 191.258 13.3431 191.258 15V16.6871C191.258 18.3439 189.914 19.6871 188.258 19.6871H182.091C180.434 19.6871 179.091 21.0302 179.091 22.6871V49.0391C179.091 50.6959 177.748 52.0391 176.091 52.0391H172.745C171.088 52.0391 169.745 50.6959 169.745 49.0391V22.6871C169.745 21.0302 168.402 19.6871 166.745 19.6871H160.578Z" fill="#111111"/>
<path d="M122.906 52.0391C121.249 52.0391 119.906 50.6959 119.906 49.0391V15C119.906 13.3431 121.249 12 122.906 12H136.276C145.29 12 150.82 17.0878 150.82 25.2726C150.82 29.5023 149.334 32.8171 146.649 35.0286C145.303 36.1375 144.619 38.0251 145.454 39.5565L149.84 47.6032C150.93 49.6023 149.483 52.0391 147.206 52.0391H143.715C142.608 52.0391 141.591 51.4292 141.069 50.4525L135.409 39.8553C134.887 38.8786 133.87 38.2687 132.763 38.2687H132.308C130.651 38.2687 129.308 39.6119 129.308 41.2687V49.0391C129.308 50.6959 127.965 52.0391 126.308 52.0391H122.906ZM129.308 27.7476C129.308 29.4044 130.651 30.7476 132.308 30.7476H134.285C138.709 30.7476 141.087 29.0332 141.087 25.2726C141.087 21.512 138.709 19.6318 134.285 19.6318H132.308C130.651 19.6318 129.308 20.9749 129.308 22.6318V27.7476Z" fill="#111111"/>
<path d="M84.7097 52.0391H81.1749C79.1236 52.0391 77.6774 50.0263 78.3316 48.0822L89.7652 14.1082C90.1761 12.8874 91.3204 12.0651 92.6085 12.0651H96.1432C98.1945 12.0651 99.6408 14.0778 98.9865 16.0219L87.553 49.9959C87.1421 51.2168 85.9978 52.0391 84.7097 52.0391Z" fill="#111111"/>
<path d="M105.933 51.974H109.468C111.519 51.974 112.965 49.9613 112.311 48.0171L100.878 14.0431C100.467 12.8223 99.3224 12 98.0343 12H94.4996C92.4483 12 91.002 14.0127 91.6563 15.9569L103.09 49.9309C103.501 51.1517 104.645 51.974 105.933 51.974Z" fill="#111111"/>
<rect x="260.214" y="43.6461" width="28.3149" height="8.32792" rx="3" fill="#111111"/>
<rect x="260.214" y="26.9902" width="28.3149" height="8.32792" rx="3" fill="#111111"/>
<rect x="260.214" y="12" width="28.3149" height="8.32792" rx="3" fill="#111111"/>
<defs>
<filter id="filter0_i_479_282" x="0" y="0" width="65" height="65" filterUnits="userSpaceOnUse" color-interpolation-filters="sRGB">
<feFlood flood-opacity="0" result="BackgroundImageFix"/>
<feBlend mode="normal" in="SourceGraphic" in2="BackgroundImageFix" result="shape"/>
<feColorMatrix in="SourceAlpha" type="matrix" values="0 0 0 0 0 0 0 0 0 0 0 0 0 0 0 0 0 0 127 0" result="hardAlpha"/>
<feOffset/>
<feGaussianBlur stdDeviation="1"/>
<feComposite in2="hardAlpha" operator="arithmetic" k2="-1" k3="1"/>
<feColorMatrix type="matrix" values="0 0 0 0 0 0 0 0 0 0 0 0 0 0 0 0 0 0 0.35 0"/>
<feBlend mode="normal" in2="shape" result="effect1_innerShadow_479_282"/>
</filter>
<linearGradient id="paint0_linear_479_282" x1="32.4999" y1="60.2385" x2="32.4999" y2="4.68405" gradientUnits="userSpaceOnUse">
<stop offset="0.05" stop-color="#78ABFD"/>
<stop offset="0.95" stop-color="#045FF1"/>
</linearGradient>
</defs>
</svg>
