<svg width="207" height="26" viewBox="0 0 207 26" fill="none" xmlns="http://www.w3.org/2000/svg">
<path d="M183.01 0.980469H189.352L194.532 11.0742H194.731L199.911 0.980469H206.219L197.453 16.8848V25.0195H191.809V16.8848L183.01 0.980469Z" fill="#111111"/>
<path d="M161.886 25.0195V0.980469H171.714C177.127 0.980469 180.447 4.03516 180.447 8.94922C180.447 12.2529 178.936 14.627 176.296 15.8223L181.31 25.0195H175.101L170.685 16.752H167.531V25.0195H161.886ZM167.531 12.2363H170.519C173.175 12.2363 174.603 11.207 174.603 8.94922C174.603 6.69141 173.175 5.5625 170.519 5.5625H167.531V12.2363Z" fill="#111111"/>
<path d="M134.58 0.980469V25.0195H129.766L120.004 10.9082H119.838V25.0195H114.193V0.980469H119.074L128.736 15.0918H128.935V0.980469H134.58Z" fill="#111111"/>
<path d="M108.841 0.980469V25.0195H103.196V0.980469H108.841Z" fill="#111111"/>
<path d="M78.4535 5.5957V0.980469H98.6742V5.5957H91.3695V25.0195H85.7582V5.5957H78.4535Z" fill="#111111"/>
<path d="M55.8355 25.0195V0.980469H65.6636C71.0757 0.980469 74.3961 4.03516 74.3961 8.94922C74.3961 12.2529 72.8853 14.627 70.2457 15.8223L75.2593 25.0195H69.0504L64.6343 16.752H61.48V25.0195H55.8355ZM61.48 12.2363H64.4683C67.1246 12.2363 68.5523 11.207 68.5523 8.94922C68.5523 6.69141 67.1246 5.5625 64.4683 5.5625H61.48V12.2363Z" fill="#111111"/>
<path d="M35.998 25.0195H30.075L38.1519 1.01953H44.075L35.998 25.0195Z" fill="#111111"/>
<path d="M46.1519 24.9805H52.075L43.998 0.980469H38.075L46.1519 24.9805Z" fill="#111111"/>
<rect x="140.075" y="19.9805" width="17" height="5" fill="#111111"/>
<rect x="140.075" y="9.98047" width="17" height="5" fill="#111111"/>
<rect x="140.075" y="0.980469" width="17" height="5" fill="#111111"/>
<path d="M3.07495 12.329C3.07495 10.1148 3.93726 7.99133 5.47217 6.42568C7.00708 4.86004 9.08887 3.98047 11.2596 3.98047C13.4303 3.98047 15.512 4.86004 17.047 6.42568C18.5819 7.99133 19.4442 10.1148 19.4442 12.329V22.9805H22.075" stroke="#2679BF" stroke-width="5" stroke-linecap="round" stroke-linejoin="round"/>
<circle cx="11.075" cy="11.9805" r="3" fill="#2679BF"/>
</svg>
